{"title":"Palki (1967) 2CD DVDRip XviD MP3 Esub - DADA","uid":8401278,"size":2220440605,"categoryP":"video","categoryS":"movies","magnet":"?xt=urn:btih:5d0b3212310d0619b0e9f2cfde391b2abe0dab57&amp;dn=Palki+%281967%29+2CD+DVDRip+XviD+MP3+Esub+-+DADA&amp;tr=udp%3A%2F%2Ftracker.openbittorrent.com%3A80&amp;tr=udp%3A%2F%2Fopen.demonii.com%3A1337&amp;tr=udp%3A%2F%2Ftracker.coppersurfer.tk%3A6969&amp;tr=udp%3A%2F%2Fexodus.desync.com%3A6969","seeders":0,"leechers":2,"uploader":"Bclassics","files":2,"time":1366705636,"description":"\nClick To Enlarge \n\n\n-: Cover :-\n &lt;a href=&quot;\nhttp://desibbrg.org/images/23516467543175634774.jpg&quot; rel=&quot;nofollow&quot; target=&quot;_NEW&quot;&gt;\nhttp://desibbrg.org/images/23516467543175634774.jpg&lt;/a&gt;\n\n\n\n\n\n\n\n    &lt;a href=&quot;\thttp://desibbrg.org/images/90762262309420772521.jpg&quot; rel=&quot;nofollow&quot; target=&quot;_NEW&quot;&gt;\thttp://desibbrg.org/images/90762262309420772521.jpg&lt;/a&gt;\n    &lt;a href=&quot;\thttp://desibbrg.org/images/80756457975416736955.jpg&quot; rel=&quot;nofollow&quot; target=&quot;_NEW&quot;&gt;\thttp://desibbrg.org/images/80756457975416736955.jpg&lt;/a&gt;\n    &lt;a href=&quot;\thttp://desibbrg.org/images/90415917106171016732.jpg&quot; rel=&quot;nofollow&quot; target=&quot;_NEW&quot;&gt;\thttp://desibbrg.org/images/90415917106171016732.jpg&lt;/a&gt;\n    &lt;a href=&quot;\thttp://desibbrg.org/images/85027384520747786163.jpg&quot; rel=&quot;nofollow&quot; target=&quot;_NEW&quot;&gt;\thttp://desibbrg.org/images/85027384520747786163.jpg&lt;/a&gt;\n    &lt;a href=&quot;\thttp://desibbrg.org/images/98820843905134910801.jpg&quot; rel=&quot;nofollow&quot; target=&quot;_NEW&quot;&gt;\thttp://desibbrg.org/images/98820843905134910801.jpg&lt;/a&gt;\n    &lt;a href=&quot;\thttp://desibbrg.org/images/58537376200911498666.jpg&quot; rel=&quot;nofollow&quot; target=&quot;_NEW&quot;&gt;\thttp://desibbrg.org/images/58537376200911498666.jpg&lt;/a&gt;\n    &lt;a href=&quot;\thttp://desibbrg.org/images/56630356794735780561.jpg&quot; rel=&quot;nofollow&quot; target=&quot;_NEW&quot;&gt;\thttp://desibbrg.org/images/56630356794735780561.jpg&lt;/a&gt;\n    &lt;a href=&quot;\thttp://desibbrg.org/images/63215515295354779054.jpg&quot; rel=&quot;nofollow&quot; target=&quot;_NEW&quot;&gt;\thttp://desibbrg.org/images/63215515295354779054.jpg&lt;/a&gt;\n    &lt;a href=&quot;\thttp://desibbrg.org/images/15329186549170776743.jpg&quot; rel=&quot;nofollow&quot; target=&quot;_NEW&quot;&gt;\thttp://desibbrg.org/images/15329186549170776743.jpg&lt;/a&gt;\n    &lt;a href=&quot;\thttp://desibbrg.org/images/44380917397091841176.jpg&quot; rel=&quot;nofollow&quot; target=&quot;_NEW&quot;&gt;\thttp://desibbrg.org/images/44380917397091841176.jpg&lt;/a&gt;\n    &lt;a href=&quot;\thttp://desibbrg.org/images/95923977007715521768.jpg&quot; rel=&quot;nofollow&quot; target=&quot;_NEW&quot;&gt;\thttp://desibbrg.org/images/95923977007715521768.jpg&lt;/a&gt;\n\n    &lt;a href=&quot;\thttp://desibbrg.org/images/55059064952314148157.jpg&quot; rel=&quot;nofollow&quot; target=&quot;_NEW&quot;&gt;\thttp://desibbrg.org/images/55059064952314148157.jpg&lt;/a&gt;\n\n-: Info :-\n\n\nGeneral\n\nFormat                           : AVI\nFormat/Info                      : Audio Video Interleave\nFormat profile                   : OpenDML\nFile size                        : 2.07 GiB\nDuration                         : 4mn 33s\nOverall bit rate                 : 65.0 Mbps\nVideo\nID                               : 0\nFormat                           : MPEG-4 Visual\nFormat profile                   : Simple@L1\nFormat settings, BVOP            : No\nFormat settings, QPel            : No\nFormat settings, GMC             : No warppoints\nFormat settings, Matrix          : Default (H.263)\nCodec ID                         : DX50\nCodec ID/Hint                    : DivX 5\nDuration                         : 4mn 33s\nBit rate                         : 1 781 Kbps\nWidth                            : 720 pixels\nHeight                           : 540 pixels\nDisplay aspect ratio             : 4:3\nFrame rate                       : 29.970 fps\nColor space                      : YUV\nChroma subsampling               : 4:2:0\nBit depth                        : 8 bits\nScan type                        : Progressive\nBits/(Pixel*Frame)               : 0.153\nStream size                      : 58.0 MiB (3%)\nWriting library                  : DigiArty AV Encoder Core\n\nAudio\nID                               : 1\nFormat                           : MPEG Audio\nCodec ID                         : 55\nCodec ID/Hint                    : MP3\nDuration                         : 4mn 33s\nBit rate                         : 128 Kbps\nChannel(s)                       : 2 channels\nSampling rate                    : 48.0 KHz\nStream size                      : 4.17 MiB (0%)\nAlignment                        : Aligned on interleaves\nRipper- DDR\n\n &lt;a href=&quot;\nhttp://www.imdb.com/title/tt0232260/&quot; rel=&quot;nofollow&quot; target=&quot;_NEW&quot;&gt;\nhttp://www.imdb.com/title/tt0232260/&lt;/a&gt;\n\nDirected by\nMahesh Kaul\t \t\nS.U. Sunny\t \t\n \nWriting credits\n(in alphabetical order)\nC.L. Kavish\t \tscreenplay\nWajahat Mirza\t \tdialogue (as Wajahat Mirza Changezi)\nNaushad\t \tstory\n\nCast (in credits order) complete, awaiting verification\n\tRajendra Kumar\t... \tNaseem Baig\n\n\tWaheeda Rehman\t... \tMehroo\n\tRehman\t... \tNawab Mirza\n\tNasir Hussain\t... \tJafferbhai Godiwala (as Nazir Husain)\n\tManmohan Krishna\t... \tHakim Dinanath\n\tJohnny Walker\t... \tSultan (as Johny Walker)\n\tRashid Khan\t... \tBannemiyan\n\tMinoo Mumtaz\t\t\n\tMalika\t\t\n\tMurad\t... \tThe doctor\n\tVijaya Choudhury\t\t(as Vijaya Choudry)\n\tBabloo\t\t\n\tMaster Shahid\t\t\n\tBalam\t\t\n\tArif Shah\t\t\n\tRoopesh Kumar\t\t\n\tNilambai\t\t(as Neelam Bai)\n\tPratima Devi\t... \tNaseem's mother (as Pritma Devi)\n\n\nNaseem lives a poor lifestyle with his widowed mom in Lucknow, India. He is well-known for his poems, and gets invited to a contest hosted by Nawab Naseemuddin who has offered a reward of Rs.5000/- to the winner. Naseem does win this award, but is humiliated as his coat his torn. As a result he refuses to accept the price. His to-be brother-in-law Sultan, in order to hasten his sister, Mehrunisa's marriage to Naseem concocts a plan in which Naseem finds the reward buried in his yard. As a result, Naseem and Mehrunisa get married, but on the very night both find out Sultan's trick, and postpone the marriage nuptials until such time they are able to return every Paisa to the Nawab. Naseem re-locates to Bombay. Shortly thereafter his money-orders start arriving and within a few years the amount to be returned is almost accumulated. Then the family receive news that there was an explosion in the shipyards where Naseem works, about 300 people are killed, and Naseem is believed to be dead .\n\n\n","torrent":{"xt":"urn:btih:5d0b3212310d0619b0e9f2cfde391b2abe0dab57","amp;dn":"Palki+%281967%29+2CD+DVDRip+XviD+MP3+Esub+-+DADA","amp;tr":["udp%3A%2F%2Ftracker.openbittorrent.com%3A80","udp%3A%2F%2Fopen.demonii.com%3A1337","udp%3A%2F%2Ftracker.coppersurfer.tk%3A6969","udp%3A%2F%2Fexodus.desync.com%3A6969"],"infoHash":"5d0b3212310d0619b0e9f2cfde391b2abe0dab57","infoHashBuffer":{"type":"Buffer","data":[93,11,50,18,49,13,6,25,176,233,242,207,222,57,27,42,190,13,171,87]},"announce":[],"urlList":[]}}